<svg width="82" height="81" viewBox="0 0 82 81" fill="none" xmlns="http://www.w3.org/2000/svg">
<path d="M54 0.297363H28C12.536 0.297363 0 12.6036 0 27.7841V53.3075C0 68.4881 12.536 80.7943 28 80.7943H54C69.464 80.7943 82 68.4881 82 53.3075V27.7841C82 12.6036 69.464 0.297363 54 0.297363Z" fill="#EAF9FF"/>
<path d="M30.653 60.1792C30.5319 60.1789 30.412 60.1549 30.3002 60.109C30.1884 60.0631 30.087 59.9962 30.0016 59.9118C29.9163 59.8274 29.8487 59.7273 29.8028 59.6172C29.7569 59.5072 29.7335 59.3891 29.734 59.2702V57.1194C29.7322 56.3993 30.0214 55.7077 30.5383 55.1966C31.0552 54.6855 31.7574 54.3966 32.4911 54.3932H34.2V50.224C34.1991 50.0211 34.2675 49.8239 34.3944 49.6637C34.5214 49.5035 34.6994 49.3896 34.9001 49.3406H34.912C35.9085 49.1112 36.7863 48.5346 37.3824 47.7178C37.9784 46.9011 38.2523 45.8996 38.153 44.8996C35.8782 43.8533 34.0107 42.1105 32.831 39.9333C32.3585 39.1431 31.9438 38.3212 31.5901 37.4733C29.6033 36.3993 27.891 34.8962 26.5824 33.0776C25.2738 31.2591 24.4031 29.1724 24.036 26.9753C23.9701 26.572 23.9941 26.1597 24.1061 25.7664C24.2182 25.3731 24.4157 25.0081 24.6851 24.697C24.9546 24.3859 25.2895 24.1358 25.6668 23.9639C26.0442 23.792 26.455 23.7025 26.871 23.7014H29.646V22.8434C29.6444 22.3347 29.8486 21.8461 30.2137 21.485C30.5787 21.1239 31.0748 20.9196 31.593 20.9172H50.407C50.9253 20.9196 51.4216 21.1239 51.7868 21.485C52.152 21.8461 52.3563 22.3346 52.355 22.8434V23.7014H55.1291C55.545 23.7027 55.9557 23.7924 56.333 23.9643C56.7102 24.1363 57.0451 24.3864 57.3145 24.6975C57.5839 25.0086 57.7815 25.3732 57.8936 25.7664C58.0057 26.1596 58.0297 26.5721 57.964 26.9753C57.597 29.1723 56.7265 31.2588 55.4181 33.0774C54.1097 34.8959 52.3976 36.3991 50.411 37.4733C50.0566 38.3211 49.6416 39.143 49.169 39.9333C48.0016 42.0797 46.1689 43.8059 43.936 44.8622C43.8263 45.868 44.0949 46.8784 44.6913 47.7032C45.2876 48.5281 46.1707 49.1104 47.174 49.3406H47.185C47.3869 49.3883 47.5666 49.5014 47.6949 49.6618C47.8231 49.8221 47.8926 50.0201 47.8921 50.224V54.3932H49.592C50.3257 54.3966 51.0281 54.6856 51.5451 55.1966C52.0622 55.7076 52.3516 56.3992 52.35 57.1194V59.2702C52.3504 59.3892 52.3269 59.5071 52.2809 59.6172C52.2349 59.7273 52.1672 59.8274 52.0818 59.9118C51.9964 59.9962 51.8948 60.0634 51.783 60.1093C51.6712 60.1552 51.5512 60.1789 51.43 60.1792H30.653ZM31.5721 57.1185V58.3611H50.516V57.1185C50.5166 56.8785 50.4201 56.6481 50.2478 56.4778C50.0755 56.3076 49.8415 56.2114 49.597 56.2104H32.4911C32.2468 56.2114 32.0129 56.3073 31.8406 56.4774C31.6683 56.6474 31.5718 56.8777 31.5721 57.1175V57.1185ZM36.034 54.3923H46.055V51.1321H36.034V54.3923ZM39.0641 48.5121C38.8804 48.7958 38.673 49.064 38.444 49.314H43.653C42.6582 48.2338 42.097 46.8357 42.074 45.3797C41.7184 45.4312 41.3594 45.456 41 45.4542C40.6695 45.4541 40.3394 45.4317 40.0121 45.3873C39.9989 46.4949 39.6705 47.577 39.0641 48.5111V48.5121ZM31.484 22.8384V27.1864C31.393 31.3078 32.4021 35.3807 34.411 39.0007C36.211 41.9948 38.55 43.643 41 43.643C43.45 43.643 45.79 41.9958 47.589 39.0007C49.598 35.3807 50.6071 31.3078 50.516 27.1864V22.8384C50.5162 22.8241 50.5134 22.8101 50.508 22.7969C50.5025 22.7837 50.4944 22.7716 50.4842 22.7615C50.4739 22.7513 50.4617 22.7432 50.4483 22.7377C50.4349 22.7322 50.4206 22.7296 50.406 22.7296H31.593C31.564 22.7298 31.5363 22.7412 31.5159 22.7615C31.4955 22.7817 31.484 22.809 31.484 22.8374V22.8384ZM52.354 27.1864C52.3638 29.7126 52.0343 32.2288 51.3741 34.6704C53.9194 32.6794 55.6207 29.8315 56.148 26.6788C56.1721 26.5368 56.1641 26.3913 56.1245 26.2527C56.0849 26.1141 56.0148 25.9857 55.919 25.8766C55.822 25.763 55.7008 25.6717 55.564 25.6089C55.4272 25.5462 55.2781 25.5137 55.127 25.5135H52.3531L52.354 27.1864ZM26.079 25.8757C25.9831 25.9848 25.913 26.1134 25.8734 26.2522C25.8338 26.391 25.8258 26.5367 25.85 26.6788C26.3777 29.8316 28.0794 32.6795 30.625 34.6704C29.9651 32.2288 29.6359 29.7126 29.646 27.1864V25.5174H26.871C26.7206 25.5169 26.5719 25.5487 26.4353 25.6104C26.2987 25.6721 26.1775 25.7623 26.08 25.8747L26.079 25.8757ZM37.5511 36.7292C37.4121 36.629 37.3043 36.4928 37.2398 36.3359C37.1754 36.1789 37.1567 36.0075 37.186 35.8407L37.659 33.1088L35.652 31.1749C35.5292 31.056 35.4425 30.9059 35.4016 30.7414C35.3606 30.5769 35.367 30.4042 35.42 30.2431C35.4724 30.0821 35.5696 29.9389 35.7008 29.8294C35.8319 29.7199 35.9917 29.6487 36.162 29.6238L38.935 29.2252L40.175 26.7406C40.25 26.5885 40.3671 26.4603 40.513 26.3706C40.6588 26.2808 40.8274 26.2333 40.9995 26.2333C41.1717 26.2333 41.3403 26.2808 41.4861 26.3706C41.6319 26.4603 41.749 26.5885 41.824 26.7406L43.063 29.2252L45.836 29.6238C46.0066 29.6491 46.1665 29.7205 46.2979 29.8302C46.4294 29.9398 46.527 30.0834 46.5799 30.2445C46.6328 30.4057 46.6388 30.5782 46.5973 30.7426C46.5558 30.9069 46.4684 31.0567 46.345 31.1749L44.339 33.1088L44.812 35.8407C44.8411 36.0075 44.8224 36.1787 44.7579 36.3356C44.6934 36.4925 44.5858 36.6289 44.4471 36.7292C44.2904 36.8418 44.1012 36.9027 43.907 36.9029C43.7581 36.9035 43.6114 36.8677 43.48 36.7989L41 35.5088L38.52 36.7989C38.3685 36.8776 38.1975 36.9129 38.0265 36.9008C37.8555 36.8886 37.6914 36.8295 37.553 36.7301L37.5511 36.7292ZM41.4261 33.677L42.686 34.3318L42.445 32.9449C42.4199 32.7998 42.4309 32.6508 42.4771 32.5108C42.5232 32.3708 42.6032 32.2439 42.7101 32.1408L43.73 31.1591L42.3221 30.9568C42.1742 30.9356 42.034 30.8792 41.9134 30.7927C41.7928 30.7061 41.6955 30.5921 41.63 30.4602L41 29.1977L40.37 30.4602C40.3046 30.5921 40.2073 30.7061 40.0867 30.7927C39.9661 30.8792 39.8258 30.9356 39.678 30.9568L38.269 31.1591L39.289 32.1408C39.3958 32.244 39.4755 32.3711 39.5215 32.5111C39.5674 32.651 39.5782 32.7999 39.553 32.9449L39.313 34.3318L40.573 33.677C40.7047 33.6085 40.8515 33.5728 41.0005 33.5728C41.1496 33.5728 41.2963 33.6085 41.428 33.677H41.4261Z" fill="#3DABDD"/>
</svg>
