<svg width="82" height="81" viewBox="0 0 82 81" fill="none" xmlns="http://www.w3.org/2000/svg">
<path d="M54 0.503052H28C12.536 0.503052 0 12.8093 0 27.9898V53.5132C0 68.6938 12.536 81 28 81H54C69.464 81 82 68.6938 82 53.5132V27.9898C82 12.8093 69.464 0.503052 54 0.503052Z" fill="#F4F4FF"/>
<path d="M46.684 59.0282L43.368 55.7102L40.051 59.0282C39.9338 59.1458 39.7938 59.2395 39.6392 59.3033C39.4847 59.3671 39.3187 59.3999 39.151 59.3999C38.9833 59.3999 38.8173 59.3671 38.6628 59.3033C38.5082 59.2395 38.3682 59.1458 38.251 59.0282C38.011 58.7865 37.8768 58.4625 37.8768 58.1251C37.8768 57.7877 38.011 57.4637 38.251 57.222L41.568 53.9039L38.251 50.5869C38.011 50.3453 37.8768 50.0213 37.8768 49.6838C37.8768 49.3464 38.011 49.0222 38.251 48.7805C38.3683 48.663 38.5084 48.5696 38.6629 48.5059C38.8174 48.4421 38.9834 48.4093 39.151 48.4093C39.3186 48.4093 39.4846 48.4421 39.6391 48.5059C39.7936 48.5696 39.9337 48.663 40.051 48.7805L43.368 52.0987L46.684 48.7805C46.8013 48.663 46.9413 48.5696 47.0959 48.5059C47.2504 48.4421 47.4164 48.4093 47.584 48.4093C47.7516 48.4093 47.9176 48.4421 48.0721 48.5059C48.2267 48.5696 48.3667 48.663 48.484 48.7805C48.7237 49.0223 48.8578 49.3465 48.8578 49.6838C48.8578 50.0212 48.7237 50.3451 48.484 50.5869L45.168 53.9039L48.484 57.222C48.7239 57.4637 48.8582 57.7877 48.8582 58.1251C48.8582 58.4625 48.7239 58.7865 48.484 59.0282C48.3668 59.1458 48.2268 59.2395 48.0722 59.3033C47.9177 59.3671 47.7517 59.3999 47.584 59.3999C47.4163 59.3999 47.2504 59.3671 47.0958 59.3033C46.9413 59.2395 46.8013 59.1458 46.684 59.0282ZM22.119 53.2973C22.1326 52.5681 22.3653 51.859 22.7878 51.2592C23.2104 50.6593 23.8041 50.1955 24.4943 49.9257C25.1845 49.6559 25.9405 49.5923 26.6674 49.7428C27.3943 49.8933 28.0598 50.251 28.5803 50.7714C29.1007 51.2918 29.453 51.9517 29.5929 52.6679C29.7328 53.3842 29.6541 54.1251 29.3666 54.7976C29.0791 55.4701 28.5957 56.0442 27.977 56.4479C27.3583 56.8517 26.6319 57.067 25.889 57.067C24.8801 57.0574 23.9163 56.6548 23.2096 55.948C22.5028 55.2411 22.1109 54.2877 22.12 53.2973H22.119ZM25.891 47.4269C25.6307 47.4271 25.3708 47.4447 25.113 47.4799C25.9174 44.6197 27.2421 41.9257 29.023 39.5282C30.8379 37.0841 33.1509 35.0375 35.8151 33.5182C38.4792 31.9988 41.4361 31.0401 44.498 30.703L41.769 28.3294C41.513 28.1047 41.3566 27.7907 41.3331 27.4544C41.3095 27.1181 41.4208 26.786 41.643 26.529C41.7514 26.4027 41.8845 26.2991 42.0344 26.2242C42.1843 26.1492 42.348 26.1044 42.5157 26.0926C42.6835 26.0808 42.852 26.1022 43.0113 26.1554C43.1705 26.2086 43.3174 26.2927 43.443 26.4025L48.588 30.879C48.844 31.1039 49.0005 31.418 49.024 31.7545C49.0475 32.0909 48.9363 32.4231 48.714 32.6803L44.241 37.829C44.1326 37.9553 43.9995 38.0592 43.8495 38.1341C43.6996 38.209 43.5359 38.2537 43.368 38.2654C43.2002 38.2772 43.0317 38.2555 42.8724 38.2022C42.7132 38.1488 42.5665 38.0646 42.441 37.9546C42.185 37.7299 42.0286 37.4159 42.0051 37.0796C41.9815 36.7433 42.0928 36.4112 42.315 36.1542L44.858 33.227C42.1454 33.5039 39.5222 34.3365 37.1577 35.6706C34.7932 37.0047 32.7401 38.8109 31.131 40.9725C29.608 43.0135 28.4492 45.2935 27.704 47.7155C27.1197 47.5245 26.5079 47.4271 25.892 47.4269H25.891ZM53.459 31.5934C53.4724 30.8642 53.7049 30.1552 54.1274 29.5553C54.5498 28.9553 55.1434 28.4913 55.8336 28.2213C56.5238 27.9514 57.2798 27.8876 58.0068 28.038C58.7338 28.1883 59.3994 28.546 59.92 29.0664C60.4405 29.5867 60.7929 30.2466 60.9329 30.9628C61.0728 31.6791 60.9941 32.42 60.7067 33.0925C60.4192 33.765 59.9358 34.3393 59.3171 34.7431C58.6984 35.1469 57.972 35.3622 57.229 35.3621C56.2203 35.3526 55.2567 34.9503 54.55 34.2436C53.8433 33.537 53.4512 32.5836 53.46 31.5934H53.459ZM29.811 33.7022L26.494 30.384L23.178 33.7022C23.0607 33.8198 22.9207 33.9131 22.7661 33.9769C22.6116 34.0406 22.4456 34.0735 22.278 34.0735C22.1104 34.0735 21.9444 34.0406 21.7899 33.9769C21.6353 33.9131 21.4953 33.8198 21.378 33.7022C21.1381 33.4606 21.0038 33.1363 21.0038 32.7989C21.0038 32.4615 21.1381 32.1375 21.378 31.8959L24.695 28.5779L21.378 25.2607C21.1381 25.0191 21.0038 24.6951 21.0038 24.3577C21.0038 24.0202 21.1381 23.696 21.378 23.4544C21.4952 23.3366 21.6352 23.2431 21.7897 23.1792C21.9443 23.1153 22.1103 23.0824 22.278 23.0824C22.4457 23.0824 22.6117 23.1153 22.7663 23.1792C22.9209 23.2431 23.0608 23.3366 23.178 23.4544L26.494 26.7725L29.811 23.4544C29.9282 23.3366 30.0682 23.2431 30.2227 23.1792C30.3773 23.1153 30.5433 23.0824 30.711 23.0824C30.8787 23.0824 31.0447 23.1153 31.1993 23.1792C31.3538 23.2431 31.4938 23.3366 31.611 23.4544C31.8505 23.6962 31.9844 24.0204 31.9844 24.3577C31.9844 24.6949 31.8505 25.0189 31.611 25.2607L28.294 28.5789L31.61 31.8959C31.8499 32.1375 31.9842 32.4615 31.9842 32.7989C31.9842 33.1363 31.8499 33.4606 31.61 33.7022C31.4927 33.8199 31.3527 33.9133 31.1982 33.9771C31.0436 34.0409 30.8777 34.0737 30.71 34.0737C30.5424 34.0737 30.3764 34.0409 30.2218 33.9771C30.0673 33.9133 29.9272 33.8199 29.81 33.7022H29.811Z" fill="#5856D6"/>
</svg>
