<svg width="82" height="81" viewBox="0 0 82 81" fill="none" xmlns="http://www.w3.org/2000/svg">
<path d="M54 0.503052H28C12.536 0.503052 0 12.8093 0 27.9898V53.5132C0 68.6938 12.536 81 28 81H54C69.464 81 82 68.6938 82 53.5132V27.9898C82 12.8093 69.464 0.503052 54 0.503052Z" fill="#E4FFEE"/>
<path d="M39.866 59.4032C39.3244 59.4041 38.8002 59.216 38.3868 58.8726C37.9734 58.5292 37.6977 58.0528 37.609 57.5283L37.176 54.9759C36.3333 54.7215 35.5156 54.3929 34.733 53.9942L32.561 55.5108C32.1766 55.7841 31.7137 55.9305 31.239 55.929C30.9386 55.9293 30.641 55.8711 30.3636 55.7577C30.0862 55.6443 29.8345 55.4781 29.623 55.2685L27.323 53.0106C26.9388 52.636 26.703 52.1395 26.6578 51.6098C26.6125 51.0801 26.7608 50.5517 27.076 50.1195L28.599 48.0404C28.1668 47.2532 27.8125 46.4272 27.541 45.5736L24.913 45.1347C24.3769 45.0479 23.8899 44.7762 23.5393 44.3688C23.1887 43.9613 22.9975 43.4445 23 42.9111V39.7178C22.9989 39.1861 23.1904 38.6713 23.5403 38.2654C23.8902 37.8596 24.3757 37.589 24.91 37.5021L27.476 37.0772C27.7376 36.2198 28.0818 35.3887 28.504 34.5954L26.959 32.4631C26.6452 32.0304 26.4977 31.5027 26.5429 30.9734C26.5882 30.444 26.8231 29.9476 27.206 29.5723L29.517 27.3144C29.899 26.938 30.4048 26.7069 30.9442 26.6625C31.4836 26.6181 32.0215 26.7632 32.462 27.0719L34.588 28.5748C35.3894 28.1499 36.2306 27.8019 37.1 27.5354L37.548 24.9554C37.6368 24.4319 37.9118 23.9564 38.3242 23.6132C38.7365 23.2701 39.2594 23.0817 39.8 23.0814H43.054C43.5954 23.0805 44.1196 23.2683 44.533 23.6116C44.9464 23.9548 45.2221 24.4311 45.311 24.9554L45.743 27.4745C46.647 27.7418 47.5221 28.0952 48.356 28.5297L50.505 27.0278C50.8892 26.7546 51.3517 26.6081 51.826 26.6095C52.1264 26.6091 52.424 26.6672 52.7013 26.7804C52.9787 26.8937 53.2305 27.0599 53.442 27.2693L55.742 29.527C56.1265 29.9017 56.3624 30.3986 56.4077 30.9286C56.453 31.4585 56.3046 31.9868 55.989 32.419L54.459 34.5209C54.8843 35.3115 55.2335 36.1395 55.502 36.9938L58.102 37.4266C58.6357 37.5117 59.1204 37.782 59.468 38.1885C59.8157 38.595 60.003 39.1104 59.996 39.6411V42.8356C59.997 43.3671 59.8055 43.8817 59.4559 44.2875C59.1062 44.6933 58.6211 44.9638 58.087 45.0511L55.487 45.4763C55.2188 46.331 54.8696 47.1593 54.444 47.9501L55.974 50.0587C56.2879 50.4913 56.4353 51.0193 56.3901 51.5487C56.3449 52.078 56.1099 52.5744 55.727 52.9497L53.427 55.2076C53.045 55.5841 52.5392 55.8149 51.9999 55.8593C51.4605 55.9037 50.9226 55.7586 50.482 55.4499L48.341 53.9482C47.5351 54.3654 46.6915 54.7081 45.821 54.972L45.381 57.5242C45.2924 58.0487 45.0167 58.5253 44.6033 58.8688C44.1899 59.2122 43.6656 59.4003 43.124 59.3994L39.866 59.4032ZM35.198 51.9218C36.1917 52.4839 37.2575 52.9131 38.367 53.198C38.5617 53.247 38.7376 53.3506 38.8735 53.4959C39.0093 53.6413 39.0991 53.8221 39.132 54.0167L39.673 57.2043C39.6805 57.2509 39.7048 57.2934 39.7415 57.3239C39.7782 57.3543 39.8249 57.3707 39.873 57.3701H43.127C43.1751 57.3707 43.2218 57.3543 43.2585 57.3239C43.2953 57.2934 43.3196 57.2509 43.327 57.2043L43.876 54.0167C43.9077 53.8217 43.9971 53.6401 44.1331 53.4945C44.2692 53.3489 44.4458 53.2458 44.641 53.198C45.7791 52.9113 46.8698 52.4668 47.88 51.8777C48.0538 51.7771 48.2534 51.7279 48.455 51.7361C48.6565 51.7443 48.8514 51.8096 49.016 51.924L51.698 53.7979C51.7313 53.8231 51.772 53.8369 51.814 53.8372C51.8415 53.8375 51.8687 53.8321 51.894 53.8216C51.9193 53.8112 51.9421 53.7959 51.961 53.7764L54.261 51.5185C54.2944 51.4845 54.3148 51.4403 54.319 51.3934C54.3232 51.3464 54.3109 51.2995 54.284 51.2603L52.375 48.6195C52.2585 48.458 52.1921 48.2669 52.184 48.0692C52.1758 47.8715 52.2262 47.6755 52.329 47.5053C52.9288 46.5134 53.3817 45.443 53.674 44.3259C53.7241 44.1346 53.8297 43.9616 53.9779 43.8281C54.1261 43.6946 54.3106 43.6063 54.509 43.5738L57.755 43.0427C57.8027 43.0356 57.8462 43.0119 57.8774 42.9758C57.9087 42.9397 57.9256 42.8938 57.925 42.8464H57.932V39.6519C57.9326 39.6046 57.9157 39.5588 57.8844 39.5227C57.8532 39.4866 57.8097 39.4627 57.762 39.4556L54.516 38.9168C54.3172 38.8861 54.132 38.7983 53.9836 38.6647C53.8353 38.5311 53.7304 38.3576 53.682 38.1657C53.3893 37.049 52.9365 35.9787 52.337 34.9871C52.2343 34.8164 52.184 34.6202 52.1924 34.4222C52.2007 34.2241 52.2673 34.0327 52.384 33.8709L54.293 31.2392C54.3201 31.1999 54.3326 31.1526 54.3284 31.1054C54.3242 31.0582 54.3036 31.0139 54.27 30.9798L51.97 28.7222C51.9508 28.703 51.9279 28.6878 51.9027 28.6774C51.8775 28.6669 51.8504 28.6615 51.823 28.6613C51.7814 28.6639 51.7414 28.6775 51.707 28.7006L49.04 30.5813C48.8755 30.696 48.6806 30.7615 48.479 30.7697C48.2774 30.7778 48.0776 30.7286 47.904 30.6275C46.8697 30.0287 45.7529 29.5789 44.588 29.2924C44.3914 29.2428 44.2136 29.1382 44.0764 28.9913C43.9391 28.8444 43.8484 28.6614 43.815 28.4648L43.274 25.301C43.2668 25.2542 43.2426 25.2116 43.2058 25.1809C43.1691 25.1502 43.1223 25.1336 43.074 25.1342H39.82C39.7718 25.1336 39.725 25.1502 39.6882 25.1809C39.6515 25.2116 39.6273 25.2542 39.62 25.301L39.064 28.511C39.0282 28.7046 38.9373 28.8843 38.8017 29.0292C38.6661 29.1741 38.4915 29.2783 38.298 29.3297C37.1616 29.6207 36.0738 30.0707 35.068 30.6659C34.8929 30.7667 34.692 30.8159 34.4891 30.8078C34.2863 30.7996 34.0901 30.7343 33.924 30.6196L31.257 28.7545C31.2179 28.7263 31.1696 28.713 31.1212 28.7172C31.0728 28.7213 31.0276 28.7426 30.994 28.7771L28.694 31.035C28.6608 31.0692 28.6404 31.1136 28.6364 31.1608C28.6324 31.2079 28.645 31.2549 28.672 31.294L30.596 33.9445C30.7138 34.1043 30.7817 34.2944 30.7913 34.4914C30.8008 34.6884 30.7518 34.8839 30.65 35.0539C30.0573 36.0489 29.6125 37.1218 29.329 38.2403C29.2787 38.4333 29.1721 38.6078 29.0224 38.7424C28.8727 38.877 28.6863 38.966 28.486 38.9983L25.263 39.5292C25.2153 39.5363 25.1719 39.5602 25.1406 39.5963C25.1094 39.6324 25.0925 39.6784 25.093 39.7257V42.919C25.0925 42.9664 25.1094 43.0124 25.1406 43.0484C25.1719 43.0845 25.2153 43.1082 25.263 43.1153L28.533 43.6613C28.7304 43.6962 28.9136 43.7853 29.0615 43.9184C29.2093 44.0515 29.3156 44.223 29.368 44.4131C29.664 45.5286 30.122 46.5965 30.728 47.5839C30.8309 47.7559 30.8812 47.9533 30.8731 48.1526C30.8649 48.3519 30.7986 48.5446 30.682 48.7079L28.782 51.3251C28.755 51.3641 28.7425 51.411 28.7467 51.4581C28.7509 51.5051 28.7715 51.5493 28.805 51.5832L31.105 53.8411C31.1243 53.8601 31.1472 53.8751 31.1724 53.8854C31.1976 53.8957 31.2247 53.901 31.252 53.901C31.2934 53.8987 31.3334 53.8858 31.368 53.8636L34.073 51.9738C34.2475 51.8498 34.4576 51.7835 34.673 51.7845C34.8577 51.7847 35.0392 51.8316 35.2 51.9209L35.198 51.9218ZM33.52 41.2385C33.5202 39.6884 33.9886 38.1732 34.866 36.8845C35.7434 35.5957 36.9903 34.5913 38.4492 33.9982C39.908 33.4051 41.5132 33.25 43.0619 33.5524C44.6105 33.8549 46.033 34.6014 47.1496 35.6974C48.2661 36.7935 49.0265 38.1899 49.3346 39.7101C49.6427 41.2304 49.4846 42.8063 48.8805 44.2384C48.2763 45.6705 47.2531 46.8944 45.9403 47.7557C44.6275 48.617 43.084 49.0768 41.505 49.077C39.3874 49.0759 37.3569 48.2496 35.8596 46.7796C34.3623 45.3095 33.5208 43.3163 33.52 41.2375V41.2385ZM35.607 41.2385C35.607 42.384 35.953 43.5038 36.6013 44.4562C37.2496 45.4087 38.1711 46.1509 39.2492 46.5893C40.3273 47.0276 41.5136 47.1425 42.658 46.919C43.8025 46.6956 44.8538 46.1439 45.6789 45.3339C46.5041 44.5239 47.066 43.4918 47.2937 42.3683C47.5213 41.2448 47.4045 40.0804 46.9579 39.0221C46.5114 37.9637 45.7551 37.0591 44.7849 36.4226C43.8146 35.7862 42.6739 35.4465 41.507 35.4465C39.9424 35.4465 38.4419 36.0566 37.3354 37.1426C36.229 38.2286 35.6073 39.7016 35.607 41.2375V41.2385Z" fill="#40975F"/>
</svg>
