<svg width="82" height="81" viewBox="0 0 82 81" fill="none" xmlns="http://www.w3.org/2000/svg">
<path d="M54 0.297363H28C12.536 0.297363 0 12.6036 0 27.7841V53.3075C0 68.4881 12.536 80.7943 28 80.7943H54C69.464 80.7943 82 68.4881 82 53.3075V27.7841C82 12.6036 69.464 0.297363 54 0.297363Z" fill="#FFF6D3"/>
<path d="M45.534 46.2179C45.4077 46.2179 45.2825 46.1935 45.1658 46.146C45.0491 46.0986 44.9431 46.029 44.8538 45.9413C44.7644 45.8537 44.6935 45.7495 44.6452 45.635C44.5969 45.5204 44.572 45.3976 44.572 45.2736C44.572 45.1496 44.5969 45.0268 44.6452 44.9122C44.6935 44.7976 44.7644 44.6935 44.8538 44.6058C44.9431 44.5181 45.0491 44.4486 45.1658 44.4011C45.2825 44.3536 45.4077 44.3292 45.534 44.3292H49.072C50.6416 44.3351 52.1515 43.7383 53.279 42.6663C53.8298 42.1459 54.268 41.5218 54.5673 40.8313C54.8666 40.1409 55.0208 39.3982 55.0208 38.6478C55.0208 37.8974 54.8666 37.1547 54.5673 36.4642C54.268 35.7737 53.8298 35.1496 53.279 34.6293C52.1515 33.5573 50.6416 32.9605 49.072 32.9664C48.846 32.9664 48.641 32.9752 48.461 32.9929C48.261 33.0125 48.061 33.0413 47.861 33.0793C47.6354 33.1251 47.4006 33.0924 47.1969 32.9867C46.9932 32.881 46.8334 32.7089 46.745 32.5001C46.1574 31.0766 45.1442 29.8612 43.839 29.0142C42.3133 28.0272 40.4913 27.5785 38.6718 27.7417C36.8522 27.9049 35.1431 28.6703 33.825 29.9124C33.096 30.6019 32.516 31.4284 32.1194 32.3427C31.7229 33.257 31.518 34.2403 31.517 35.234C31.517 35.2586 31.517 35.2841 31.517 35.3086V35.3479C31.5154 35.6008 31.4116 35.8427 31.2284 36.0205C31.0452 36.1983 30.7976 36.2975 30.54 36.2962H30.485L30.316 36.2883H30.188C29.0771 36.2846 28.0087 36.7074 27.211 37.4663C26.821 37.8344 26.5108 38.2759 26.2988 38.7645C26.0869 39.2531 25.9777 39.7787 25.9777 40.3097C25.9777 40.8408 26.0869 41.3664 26.2988 41.855C26.5108 42.3436 26.821 42.7851 27.211 43.1532C28.0088 43.912 29.0771 44.3348 30.188 44.3312H34.94C35.1951 44.3312 35.4398 44.4307 35.6202 44.6078C35.8006 44.7849 35.902 45.0251 35.902 45.2755C35.902 45.526 35.8006 45.7662 35.6202 45.9433C35.4398 46.1204 35.1951 46.2199 34.94 46.2199H30.188C28.5552 46.2252 26.9849 45.6042 25.812 44.4892C25.2383 43.9487 24.7819 43.2999 24.4701 42.5819C24.1583 41.8638 23.9976 41.0913 23.9976 40.3107C23.9976 39.5302 24.1583 38.7577 24.4701 38.0396C24.7819 37.3215 25.2383 36.6728 25.812 36.1323C26.8311 35.1603 28.1574 34.5585 29.572 34.4261C29.7751 32.2025 30.7881 30.1253 32.425 28.5754C34.0728 27.0204 36.2107 26.0624 38.487 25.859C40.7633 25.6556 43.0422 26.219 44.949 27.4563C46.3591 28.3725 47.5011 29.6343 48.262 31.1169C48.546 31.0894 48.815 31.0757 49.062 31.0757C51.1537 31.069 53.1653 31.8648 54.668 33.2933C55.4019 33.9857 55.9857 34.8165 56.3846 35.7358C56.7834 36.6552 56.989 37.6441 56.989 38.6434C56.989 39.6426 56.7834 40.6316 56.3846 41.5509C55.9857 42.4703 55.4019 43.301 54.668 43.9935C53.1653 45.422 51.1537 46.2177 49.062 46.2111L45.534 46.2179Z" fill="#333333"/>
<path d="M39.511 35.7524C39.511 35.4949 39.6152 35.2479 39.8007 35.0659C39.9861 34.8838 40.2377 34.7815 40.5 34.7815C40.7623 34.7815 41.0138 34.8838 41.1993 35.0659C41.3848 35.2479 41.489 35.4949 41.489 35.7524V54.3265C41.489 54.584 41.3848 54.831 41.1993 55.0131C41.0138 55.1951 40.7623 55.2974 40.5 55.2974C40.2377 55.2974 39.9861 55.1951 39.8007 55.0131C39.6152 54.831 39.511 54.584 39.511 54.3265V35.7524Z" fill="#333333"/>
<path d="M47.302 40.3476C47.3933 40.4337 47.466 40.5371 47.5156 40.6515C47.5653 40.7658 47.5909 40.8889 47.5909 41.0132C47.5909 41.1375 47.5653 41.2606 47.5156 41.375C47.466 41.4893 47.3933 41.5926 47.302 41.6788C47.1145 41.8556 46.8645 41.9543 46.6045 41.9543C46.3445 41.9543 46.0945 41.8556 45.907 41.6788L40.507 36.4759L35.107 41.6788C34.9195 41.8556 34.6695 41.9543 34.4095 41.9543C34.1495 41.9543 33.8995 41.8556 33.712 41.6788C33.6206 41.5926 33.5479 41.4893 33.4983 41.375C33.4486 41.2606 33.423 41.1375 33.423 41.0132C33.423 40.8889 33.4486 40.7658 33.4983 40.6515C33.5479 40.5371 33.6206 40.4337 33.712 40.3476L39.812 34.4714C39.9995 34.2946 40.2494 34.1958 40.5095 34.1958C40.7695 34.1958 41.0194 34.2946 41.207 34.4714L47.3069 40.3476H47.302Z" fill="#333333"/>
<path d="M39.511 54.3266V37.4251L35.097 41.6756C34.9093 41.8538 34.6582 41.9536 34.397 41.9536C34.1358 41.9536 33.8848 41.8538 33.697 41.6756C33.6058 41.5894 33.5332 41.4861 33.4836 41.3717C33.4341 41.2573 33.4086 41.1343 33.4086 41.01C33.4086 40.8858 33.4341 40.7628 33.4836 40.6484C33.5332 40.534 33.6058 40.4307 33.697 40.3445L39.797 34.4684C39.9849 34.2903 40.2358 34.1908 40.4969 34.1908C40.7581 34.1908 41.0091 34.2903 41.197 34.4684L47.297 40.3445C47.3882 40.4307 47.4608 40.534 47.5104 40.6484C47.5599 40.7628 47.5854 40.8858 47.5854 41.01C47.5854 41.1343 47.5599 41.2573 47.5104 41.3717C47.4608 41.4861 47.3882 41.5894 47.297 41.6756C47.1096 41.8523 46.8598 41.9512 46.6 41.9512C46.3401 41.9512 46.0903 41.8523 45.903 41.6756L41.489 37.4251V54.3266C41.4776 54.5765 41.3683 54.8123 41.1841 54.9852C40.9999 55.1581 40.7549 55.2546 40.5 55.2546C40.2451 55.2546 40.0001 55.1581 39.8159 54.9852C39.6317 54.8123 39.5224 54.5765 39.511 54.3266ZM45.5341 46.218C45.2789 46.218 45.0342 46.1185 44.8538 45.9414C44.6733 45.7643 44.572 45.5239 44.572 45.2735C44.572 45.023 44.6733 44.7828 44.8538 44.6057C45.0342 44.4286 45.2789 44.3292 45.5341 44.3292H49.071C50.6412 44.3353 52.1516 43.738 53.2791 42.6652C53.8299 42.1449 54.268 41.5208 54.5673 40.8303C54.8666 40.1398 55.0209 39.3971 55.0209 38.6467C55.0209 37.8963 54.8666 37.1536 54.5673 36.4631C54.268 35.7726 53.8299 35.1485 53.2791 34.6282C52.1512 33.5561 50.641 32.9595 49.071 32.9654C48.846 32.9654 48.6411 32.9741 48.4611 32.9918C48.2597 33.0103 48.0593 33.0393 47.861 33.0783C47.6354 33.124 47.4006 33.091 47.197 32.9853C46.9934 32.8796 46.8336 32.7078 46.745 32.499C46.1575 31.0752 45.1443 29.8595 43.839 29.0121C42.3134 28.0254 40.4916 27.5768 38.6722 27.74C36.8529 27.9032 35.1441 28.6686 33.826 29.9104C33.097 30.5998 32.5169 31.4263 32.1204 32.3406C31.7238 33.2549 31.5189 34.2382 31.5179 35.2319C31.5179 35.2565 31.5179 35.2831 31.5179 35.3077V35.347C31.5173 35.4722 31.4916 35.5961 31.4421 35.7115C31.3927 35.827 31.3205 35.9317 31.2297 36.0197C31.139 36.1078 31.0315 36.1776 30.9133 36.2249C30.7952 36.2721 30.6686 36.2959 30.541 36.2951H30.486L30.318 36.2884H30.1899C29.079 36.2843 28.0105 36.707 27.213 37.4663C26.8229 37.8342 26.5126 38.2756 26.3007 38.7641C26.0887 39.2527 25.9794 39.7783 25.9794 40.3093C25.9794 40.8403 26.0887 41.3659 26.3007 41.8544C26.5126 42.3429 26.8229 42.7843 27.213 43.1522C28.0106 43.9113 29.079 44.334 30.1899 44.3301H34.942C35.1972 44.3301 35.4418 44.4296 35.6222 44.6067C35.8026 44.7838 35.9041 45.024 35.9041 45.2744C35.9041 45.5249 35.8026 45.7653 35.6222 45.9424C35.4418 46.1195 35.1972 46.2189 34.942 46.2189H30.1899C28.5569 46.2243 26.9863 45.6033 25.813 44.4883C25.2401 43.9474 24.7843 43.2983 24.473 42.5803C24.1617 41.8623 24.0012 41.0901 24.0012 40.3097C24.0012 39.5294 24.1617 38.7571 24.473 38.0391C24.7843 37.3212 25.2401 36.6721 25.813 36.1312C26.8342 35.1598 28.1623 34.5594 29.578 34.4291C29.781 32.2056 30.7936 30.1285 32.4301 28.5784C34.0779 27.0234 36.2158 26.0654 38.4921 25.862C40.7683 25.6586 43.0472 26.2218 44.954 27.4591C46.3644 28.3755 47.5064 29.6377 48.267 31.1207C48.551 31.0932 48.82 31.0795 49.067 31.0795C51.1591 31.0728 53.171 31.8686 54.674 33.2971C55.4079 33.9895 55.9918 34.8205 56.3906 35.7398C56.7895 36.6591 56.9951 37.6479 56.9951 38.6472C56.9951 39.6464 56.7895 40.6355 56.3906 41.5548C55.9918 42.4741 55.4079 43.3051 54.674 43.9975C53.171 45.426 51.1591 46.2216 49.067 46.2149L45.5341 46.218Z" fill="#D6AB00"/>
</svg>
