<svg width="82" height="81" viewBox="0 0 82 81" fill="none" xmlns="http://www.w3.org/2000/svg">
<path opacity="0.102" d="M54 0.297363H28C12.536 0.297363 0 12.6036 0 27.7841V53.3075C0 68.4881 12.536 80.7943 28 80.7943H54C69.464 80.7943 82 68.4881 82 53.3075V27.7841C82 12.6036 69.464 0.297363 54 0.297363Z" fill="#FF4361"/>
<path d="M49.229 50.8101C49.3623 49.8449 49.2511 48.8624 48.9051 47.9495C48.2173 46.8317 47.2314 45.9196 46.054 45.3117C45.697 45.081 45.469 44.9407 45.235 44.7964C43.698 43.8451 42.0831 42.8458 41.5011 41.44C40.9201 42.8448 39.301 43.8451 37.769 44.7954C37.461 44.9868 37.158 45.1733 36.948 45.3088C35.7684 45.9212 34.7839 46.8415 34.1031 47.9681C33.7608 48.8747 33.6482 49.8493 33.775 50.8081L49.229 50.8101ZM50.696 47.1377C51.2621 48.6203 51.4107 50.2254 51.1261 51.7839C51.1255 52.041 51.021 52.2873 50.8356 52.4688C50.6502 52.6503 50.3989 52.7521 50.137 52.7518H32.862C32.6156 52.7517 32.3781 52.661 32.1965 52.4974C32.0149 52.3338 31.9023 52.1094 31.881 51.8683C31.595 50.2917 31.7431 48.6687 32.31 47.1671C32.897 45.9066 33.976 44.9151 35.867 43.6949C36.194 43.4839 36.456 43.3209 36.718 43.1599C38.186 42.2509 39.747 41.284 39.747 40.3131C39.747 39.3422 38.186 38.3782 36.718 37.4662C36.457 37.3052 36.195 37.1423 35.867 36.9312C33.904 35.6649 32.8121 34.5841 32.2411 33.2284C31.7127 31.664 31.5873 29.9956 31.8761 28.3721C31.8792 28.1167 31.9846 27.8728 32.1695 27.6931C32.3544 27.5135 32.6039 27.4125 32.864 27.412H50.1341C50.3793 27.4119 50.6157 27.5016 50.7971 27.6635C50.9785 27.8255 51.0919 28.048 51.115 28.2876C51.4143 29.9365 51.2916 31.6326 50.758 33.2235C50.188 34.5782 49.095 35.66 47.132 36.9263C46.799 37.1413 46.5421 37.3003 46.2801 37.4623C44.8131 38.3703 43.2511 39.3373 43.2511 40.3092C43.2511 41.281 44.814 42.244 46.282 43.156C46.617 43.3631 46.952 43.5712 47.131 43.6871C49.024 44.9083 50.107 45.8791 50.695 47.1308L50.696 47.1377ZM41.4961 39.1861C42.0771 37.7814 43.696 36.782 45.229 35.8308C45.536 35.6403 45.844 35.4509 46.049 35.3183C47.2766 34.6819 48.2813 33.6984 48.933 32.4951C49.2737 31.4836 49.374 30.4091 49.226 29.3537H33.77C33.622 30.4091 33.7226 31.4838 34.0641 32.4951C34.7156 33.6982 35.7199 34.6817 36.947 35.3183C37.157 35.4528 37.46 35.6413 37.768 35.8308C39.304 36.781 40.919 37.7814 41.5 39.1861H41.4961Z" fill="#333333"/>
<path d="M30.773 23.8574H52.223C52.5864 23.8579 52.9461 23.9287 53.2816 24.0658C53.6171 24.2029 53.9217 24.4036 54.178 24.6565C54.4356 24.9091 54.64 25.209 54.7795 25.5391C54.919 25.8693 54.9909 26.2232 54.991 26.5806C54.9904 26.9379 54.918 27.2916 54.778 27.6214C54.6379 27.9512 54.433 28.2507 54.175 28.5027C53.918 28.7562 53.6127 28.9573 53.2763 29.0946C52.94 29.2319 52.5793 29.3027 52.215 29.3027H30.773C30.4089 29.3025 30.0485 29.2317 29.7123 29.0944C29.3761 28.9571 29.0708 28.756 28.814 28.5027C28.5562 28.2506 28.3515 27.9511 28.2116 27.6212C28.0718 27.2914 27.9995 26.9378 27.999 26.5806C27.9994 26.2238 28.0714 25.8705 28.2109 25.5411C28.3504 25.2116 28.5546 24.9123 28.812 24.6604C29.0683 24.4075 29.3729 24.2067 29.7084 24.0696C30.0439 23.9324 30.4036 23.8617 30.767 23.8613L30.773 23.8574ZM52.227 25.7992H30.773C30.5626 25.7993 30.3607 25.8807 30.211 26.0259C30.0633 26.1726 29.9803 26.3704 29.98 26.5766C29.9797 26.6788 30 26.7801 30.0397 26.8746C30.0793 26.9691 30.1375 27.055 30.211 27.1274C30.3602 27.2736 30.5622 27.3562 30.773 27.3571H52.223C52.3273 27.3569 52.4306 27.3366 52.5269 27.2971C52.6231 27.2577 52.7105 27.2 52.784 27.1274C52.8575 27.055 52.9157 26.9691 52.9554 26.8746C52.995 26.7801 53.0153 26.6788 53.015 26.5766C53.0146 26.4742 52.9937 26.3728 52.9534 26.2783C52.913 26.1838 52.8541 26.098 52.78 26.0259C52.6304 25.8798 52.428 25.7975 52.217 25.7972L52.227 25.7992Z" fill="#333333"/>
<path d="M30.773 50.8102H52.223C52.5872 50.8103 52.9478 50.8809 53.2841 51.0181C53.6204 51.1552 53.9259 51.3561 54.183 51.6093C54.4409 51.8612 54.6458 52.1605 54.7858 52.4901C54.9258 52.8198 54.9982 53.1732 54.999 53.5304C54.9974 54.252 54.7048 54.9436 54.1851 55.4539C53.6655 55.9642 52.9611 56.2517 52.226 56.2535H30.773C30.4089 56.2533 30.0485 56.1825 29.7123 56.0452C29.3761 55.9079 29.0708 55.7068 28.814 55.4535C28.5566 55.2015 28.3523 54.9023 28.2128 54.5728C28.0733 54.2434 28.0014 53.8901 28.001 53.5333C28.0017 53.1762 28.074 52.8228 28.2138 52.4932C28.3536 52.1635 28.5583 51.8642 28.816 51.6122C29.073 51.3591 29.3783 51.1583 29.7145 51.0212C30.0506 50.8841 30.411 50.8134 30.775 50.8131L30.773 50.8102ZM52.227 52.7519H30.773C30.562 52.7531 30.36 52.836 30.211 52.9826C30.1375 53.0547 30.0792 53.1405 30.0396 53.2348C29.9999 53.3292 29.9796 53.4303 29.98 53.5323C29.9801 53.7399 30.0639 53.9389 30.213 54.086C30.3622 54.2323 30.5642 54.3148 30.775 54.3157H52.223C52.3281 54.3157 52.4321 54.2954 52.5292 54.2559C52.6262 54.2165 52.7144 54.1586 52.7887 54.0857C52.863 54.0128 52.9219 53.9262 52.9621 53.8309C53.0023 53.7356 53.023 53.6335 53.023 53.5304C53.0234 53.4283 53.0031 53.3272 52.9635 53.2328C52.9239 53.1385 52.8655 53.0528 52.792 52.9807C52.7185 52.9078 52.6312 52.85 52.5349 52.8104C52.4386 52.7708 52.3354 52.7503 52.231 52.7499L52.227 52.7519Z" fill="#333333"/>
<path d="M30.774 56.2528C30.4098 56.2526 30.0492 56.1819 29.7129 56.0447C29.3766 55.9076 29.0711 55.7069 28.814 55.4537C28.5565 55.2019 28.3521 54.9027 28.2126 54.5732C28.0731 54.2437 28.0012 53.8903 28.001 53.5335C28.0013 53.1763 28.0735 52.8225 28.2133 52.4927C28.3532 52.1628 28.558 51.8634 28.816 51.6114C29.0732 51.3584 29.3787 51.1575 29.715 51.0204C30.0513 50.8833 30.4118 50.8126 30.776 50.8124H31.8C31.6587 49.5751 31.8336 48.3228 32.309 47.1685C32.896 45.909 33.975 44.9164 35.866 43.6962C36.193 43.4852 36.455 43.3222 36.716 43.1622C38.184 42.2532 39.745 41.2851 39.745 40.3152C39.745 39.3454 38.183 38.3805 36.716 37.4685C36.454 37.3075 36.192 37.1456 35.866 36.9345C33.903 35.6682 32.811 34.5874 32.24 33.2317C31.7811 31.9749 31.6293 30.6299 31.797 29.305H30.772C30.4078 29.3051 30.0471 29.2344 29.7108 29.0972C29.3744 28.9601 29.069 28.7593 28.812 28.506C28.5539 28.2542 28.3491 27.9547 28.2094 27.625C28.0696 27.2952 27.9977 26.9415 27.9977 26.5843C27.9977 26.2271 28.0696 25.8735 28.2094 25.5437C28.3491 25.2139 28.5539 24.9145 28.812 24.6627C29.0683 24.4095 29.373 24.2086 29.7087 24.0714C30.0444 23.9343 30.4044 23.8638 30.768 23.8636H52.221C52.5845 23.8639 52.9445 23.9345 53.2802 24.0717C53.6158 24.2088 53.9206 24.4096 54.177 24.6627C54.4351 24.9147 54.64 25.2144 54.7798 25.5444C54.9195 25.8745 54.9915 26.2283 54.9915 26.5858C54.9915 26.9432 54.9195 27.2971 54.7798 27.6271C54.64 27.9571 54.4351 28.2568 54.177 28.5088C53.9199 28.7622 53.6145 28.9632 53.2781 29.1003C52.9418 29.2375 52.5812 29.3079 52.217 29.3079H51.2C51.368 30.6327 51.2165 31.9777 50.758 33.2346C50.187 34.5903 49.095 35.671 47.132 36.9374C46.8 37.1534 46.542 37.3113 46.281 37.4723C44.814 38.3804 43.252 39.3485 43.252 40.3193C43.252 41.2902 44.815 42.2541 46.284 43.1661C46.618 43.3722 46.954 43.5813 47.133 43.6972C49.026 44.9193 50.109 45.8903 50.697 47.1409C51.1768 48.3036 51.3488 49.5667 51.197 50.8124H52.222C52.9574 50.813 53.6624 51.1004 54.182 51.6114C54.4401 51.8634 54.645 52.1628 54.785 52.4927C54.9251 52.8225 54.9974 53.1762 54.998 53.5335C54.9966 54.2554 54.704 54.9471 54.184 55.4576C53.6641 55.968 52.9593 56.2553 52.224 56.2566L30.774 56.2528ZM30.774 54.31H52.227C52.4383 54.31 52.641 54.2281 52.7909 54.0819C52.9408 53.9357 53.0257 53.7371 53.027 53.5297C53.0274 53.4276 53.0072 53.3263 52.9678 53.2318C52.9283 53.1373 52.8703 53.0514 52.797 52.9789C52.7234 52.9061 52.6358 52.8481 52.5394 52.8085C52.443 52.7689 52.3395 52.7484 52.235 52.7481H30.774C30.563 52.7493 30.361 52.8323 30.212 52.9789C30.1384 53.0512 30.0801 53.137 30.0404 53.2315C30.0008 53.3261 29.9805 53.4275 29.981 53.5297C29.9813 53.7369 30.0651 53.9355 30.214 54.0824C30.3626 54.228 30.564 54.3098 30.774 54.31ZM37.769 44.7927C37.461 44.9831 37.158 45.1708 36.948 45.3063C35.7682 45.919 34.7837 46.8396 34.103 47.9666C33.7603 48.873 33.6477 49.8476 33.775 50.8064H49.23C49.3634 49.8411 49.2518 48.8586 48.905 47.946C48.2177 46.8278 47.2317 45.9156 46.054 45.3082C45.697 45.0775 45.469 44.937 45.236 44.7917C43.698 43.8405 42.083 42.8412 41.502 41.4354C40.919 42.8422 39.3 43.8424 37.769 44.7927ZM34.069 32.4954C34.7212 33.6984 35.7257 34.6818 36.953 35.3187C37.163 35.4532 37.466 35.6416 37.774 35.8311C39.31 36.7823 40.925 37.7817 41.505 39.1864C42.086 37.7817 43.705 36.7823 45.237 35.8311C45.544 35.6416 45.852 35.4512 46.057 35.3187C47.2845 34.6822 48.2892 33.6987 48.941 32.4954C49.2811 31.4839 49.3814 30.4095 49.234 29.3541H33.771C33.623 30.4098 33.7232 31.4847 34.064 32.4964L34.069 32.4954ZM30.216 26.0252C30.0685 26.1721 29.9858 26.3701 29.9858 26.5764C29.9858 26.7827 30.0685 26.9807 30.216 27.1277C30.3654 27.2742 30.5678 27.3566 30.779 27.3573H52.232C52.3364 27.3572 52.4399 27.337 52.5363 27.2976C52.6328 27.2582 52.7203 27.2004 52.794 27.1277C52.8677 27.0553 52.9262 26.9694 52.9661 26.8748C53.006 26.7802 53.0266 26.6788 53.0266 26.5764C53.0266 26.4741 53.006 26.3726 52.9661 26.278C52.9262 26.1835 52.8677 26.0976 52.794 26.0252C52.6444 25.879 52.442 25.7969 52.231 25.7966H30.774C30.5629 25.7969 30.3606 25.879 30.211 26.0252H30.216Z" fill="#F55767"/>
</svg>
